<?xml version="1.0" encoding="utf-8"?>
<!-- Generator: Adobe Illustrator 26.0.3, SVG Export Plug-In . SVG Version: 6.00 Build 0)  -->
<svg version="1.1" id="Layer_1" xmlns="http://www.w3.org/2000/svg" xmlns:xlink="http://www.w3.org/1999/xlink" x="0px" y="0px"
	 viewBox="0 0 1080 1080" style="enable-background:new 0 0 1080 1080;" xml:space="preserve">
<style type="text/css">
	.st0{fill:none;stroke:#000000;stroke-width:1.5;stroke-miterlimit:10;}
	.st1{enable-background:new    ;}
</style>
<g>
	<g>
		<g>
			<path class="st0" d="M798.75,614.25"/>
			<path class="st0" d="M815.59,596.98c1.97-13.09,3.01-26.35,3.04-39.66c0.23-128.93-94.86-214.29-212.4-190.66
				S393.23,513.98,393,642.9c40.66,7.33,82.05,16.82,122.99,28.2c0.15-85.65,63.58-167.81,141.66-183.51
				c67.4-13.55,123.69,26.85,137.73,93.24"/>
			<path class="st0" d="M799.94,633.03c0.02-11.72-2.33-41.68-4.56-52.2"/>
			<g class="st1">
				<g>
					<path class="st0" d="M393,642.9c40.66,7.33,82.05,16.82,122.99,28.2c0.15-85.65,63.58-167.81,141.66-183.51
						c-19.06-39.73-36.36-80.42-51.42-120.92C488.7,390.3,393.23,513.98,393,642.9z"/>
					<path class="st0" d="M422.26,519.24c37.14,22.18,75.22,45.64,113.17,69.71"/>
					<path class="st0" d="M498.76,420.14c27.96,34.08,57.4,68.73,87.49,102.97"/>
				</g>
				<g>
					<path class="st0" d="M556.86,683.13c0.13-72.84,54.06-142.71,120.47-156.06"/>
					<path class="st0" d="M597.42,696.4c0.11-60.91,45.21-119.34,100.74-130.5"/>
					<path class="st0" d="M535.43,588.95c37.95,24.08,76.07,48.97,113.32,73.98"/>
					<path class="st0" d="M586.25,523.11c30.1,34.25,61.09,68.37,92.13,101.43"/>
				</g>
				<g>
					<path class="st0" d="M657.65,487.59c19.06,39.74,40.05,78.84,62.37,116.24"/>
					<path class="st0" d="M799.94,633.03"/>
					<path class="st0" d="M677.33,527.08c79.97-14.38,130.23,59,122.61,129.37"/>
					<path class="st0" d="M698.16,565.9c55.53-11.16,102.12,29.37,102.01,90.28"/>
					<path class="st0" d="M728.97,494.42c8.04,38.68,19.02,76.83,32.63,113.39"/>
					<path class="st0" d="M779.59,539.86c0.22,31.66,10.7,91.26,18.13,122.27"/>
				</g>
				<g>
					<path class="st0" d="M648.75,662.93c37.61,25.26,70.82,48.22,106.27,73.47"/>
					<path class="st0" d="M678.38,624.54"/>
				</g>
			</g>
			<path class="st0" d="M738.94,778.34"/>
			<path class="st0" d="M738.94,778.34"/>
			<path class="st0" d="M635.35,800.31c7.08-0.23,14.34-1.06,21.74-2.55c11.36-2.28,37.18-6.5,47.77-11.4"/>
			<g class="st1">
				<g>
					<path class="st0" d="M605.39,833.56c15.15-15.57,32.55-27.62,51.7-35.8c-78.08,15.7-141.26-41.01-141.1-126.66
						c-40.95-11.38-82.33-20.87-122.99-28.2C392.77,771.83,487.86,857.19,605.39,833.56z"/>
					<path class="st0" d="M498.04,823.29c28.04-14.33,57.57-25.22,87.73-32.35"/>
					<path class="st0" d="M421.84,754.89c37.2-6.12,75.32-9.28,113.31-9.39"/>
				</g>
				<g>
					<path class="st0" d="M637.41,710.83c-39.62-14.98-80.47-28.35-121.43-39.73c-0.15,85.65,63.02,142.36,141.1,126.66"/>
					<path class="st0" d="M704.86,786.36c-66.4,13.35-148.13-30.39-148-103.23"/>
					<path class="st0" d="M705.52,786.23c-55.53,11.16-108.2-28.92-108.09-89.83"/>
					<path class="st0" d="M585.77,790.94c30.17-7.13,61.23-10.58,92.33-10.23"/>
					<path class="st0" d="M535.15,745.5c37.99-0.11,76.16,2.82,113.44,8.71"/>
				</g>
				<g>
					<path class="st0" d="M648.59,754.21c25.42,4.02,50.59,9.45,75.18,16.2"/>
				</g>
			</g>
			<g class="st1">
				<g>
					<path class="st0" d="M657.65,487.59c19.06,39.74,40.05,78.84,62.37,116.24"/>
				</g>
				<g>
					<path class="st0" d="M743.05,641.07c22.81-4.59,42.89,4.1,54.67,21.05"/>
					<path class="st0" d="M766.98,677.16c8.59-1.73,16.68-1.02,23.78,1.67"/>
				</g>
			</g>
			<g class="st1">
				<g>
					<path class="st0" d="M657.65,487.59c19.06,39.74,40.05,78.84,62.37,116.24"/>
				</g>
				<g>
					<path class="st0" d="M743.05,641.07"/>
				</g>
			</g>
			<g class="st1">
				<g>
					<path class="st0" d="M535.43,588.95c37.95,24.08,76.07,48.97,113.32,73.98"/>
					<path class="st0" d="M586.25,523.11c30.1,34.25,61.09,68.37,92.13,101.43"/>
				</g>
				<g>
					<path class="st0" d="M761.6,607.81c-13.61-36.56-24.59-74.71-32.63-113.39c-9.85-52.52-12.33-63.98-15.29-117.48"/>
					<path class="st0" d="M797.72,662.12"/>
					<path class="st0" d="M779.59,539.86"/>
				</g>
				<g>
					<path class="st0" d="M781.16,697.4c-24.99-33.92-38.61-55.82-61.15-93.58c-45.53,9.15-82.51,57.06-82.6,107.01
						c40,15.13,65.27,25.35,102.38,43.57"/>
					<path class="st0" d="M677.08,726.54c0.07-39.89,29.61-78.15,65.97-85.46"/>
					<path class="st0" d="M715.9,743.33c0.06-30.88,22.92-60.51,51.08-66.17"/>
					<path class="st0" d="M648.75,662.93"/>
					<path class="st0" d="M678.38,624.54c31.34,33.38,59.2,62.04,90.3,92.92"/>
				</g>
				<g>
					<path class="st0" d="M743.05,641.07"/>
					<path class="st0" d="M761.6,607.81c8.82,23.68,18.79,46.83,29.79,69.19"/>
				</g>
			</g>
			<g class="st1">
				<g>
					<path class="st0" d="M637.41,710.83c-39.62-14.98-80.47-28.35-121.43-39.73c-0.15,85.65,63.02,142.36,141.1,126.66"/>
				</g>
				<g>
					<path class="st0" d="M709.99,782.53c-19.72-8.5-32.96-29.21-32.92-55.99"/>
					<path class="st0" d="M723.31,770.96c-4.72-7.53-7.42-16.96-7.41-27.64"/>
				</g>
			</g>
			<g class="st1">
				<g>
					<path class="st0" d="M637.41,710.83c-39.62-14.98-80.47-28.35-121.43-39.73c-0.15,85.65,63.02,142.36,141.1,126.66"/>
				</g>
				<g>
					<path class="st0" d="M677.08,726.54"/>
					<path class="st0" d="M742.79,785.52"/>
				</g>
			</g>
			<path class="st0" d="M51,637.64c32.75-6.59,68.37-10.79,105.86-12.48c0.42-233.5,173.32-457.47,386.18-500.27
				C755.9,82.09,928.12,236.68,927.7,470.18c-0.42,233.5-173.32,457.47-386.18,500.27c-212.86,42.8-385.08-111.8-384.66-345.29
				C119.37,626.85,83.75,631.05,51,637.64c-0.53,292.43,215.16,486.05,481.75,432.45c266.59-53.6,483.13-334.11,483.65-626.55
				c0.53-292.43-215.16-486.05-481.75-432.45S51.53,345.21,51,637.64z"/>
			<g class="st1">
				<g>
					<path class="st0" d="M51,637.64c32.75-6.59,68.37-10.79,105.86-12.48c0.42-233.5,173.32-457.47,386.18-500.27
						c-5.63-39.59-8.45-77.87-8.39-113.8C268.06,64.69,51.53,345.21,51,637.64z"/>
					<path class="st0" d="M84.67,631.85C85.16,359.24,287.02,97.73,535.55,47.77"/>
					<path class="st0" d="M120.03,627.68c0.45-252.93,187.74-495.55,418.32-541.91"/>
					<path class="st0" d="M117.38,357.14c28.25,12.45,59.36,27.27,92.48,44.05"/>
					<path class="st0" d="M290.9,132.37c16.48,27.7,35.82,57.76,57.51,89.35"/>
				</g>
				<g>
					<path class="st0" d="M534.65,11.09c-0.06,35.93,2.75,74.21,8.39,113.8C755.9,82.09,928.12,236.68,927.7,470.18
						c26.11-11.09,55.95-20.06,88.71-26.64C1016.93,151.11,801.24-42.51,534.65,11.09z"/>
					<path class="st0" d="M535.55,47.77C784.07-2.2,985.14,178.29,984.65,450.91"/>
					<path class="st0" d="M538.35,85.78c230.58-46.36,417.13,121.1,416.67,374.03"/>
					<path class="st0" d="M778.15,34.4c-16.59,34.35-30.28,71.05-40.69,109.1"/>
					<path class="st0" d="M950.98,189.54c-28.31,23.82-53.72,50-75.52,77.83"/>
				</g>
				<g>
					<path class="st0" d="M1016.4,443.54c-32.75,6.59-62.6,15.55-88.71,26.64c-0.42,233.5-173.32,457.47-386.18,500.27
						c-5.76,30.18-8.7,63.71-8.77,99.63C799.34,1016.49,1015.88,735.97,1016.4,443.54z"/>
					<path class="st0" d="M984.65,450.91c-0.49,272.62-202.35,534.12-450.88,584.09"/>
					<path class="st0" d="M955.02,459.8c-0.45,252.93-187.74,495.55-418.32,541.91"/>
					<path class="st0" d="M950.02,724.04c-28.25-12.45-53.59-22.51-75.33-29.89"/>
					<path class="st0" d="M776.51,948.81c-16.48-27.7-30.06-53-40.36-75.19"/>
				</g>
				<g>
					<path class="st0" d="M532.75,1070.09c0.06-35.93,3.01-69.45,8.77-99.63c-212.86,42.8-385.08-111.8-384.66-345.29
						c-37.5,1.69-73.11,5.89-105.86,12.48C50.48,930.07,266.16,1123.68,532.75,1070.09z"/>
					<path class="st0" d="M533.77,1034.99c-248.52,49.97-449.59-130.53-449.1-403.14"/>
					<path class="st0" d="M536.7,1001.71c-230.58,46.36-417.13-121.1-416.67-374.03"/>
					<path class="st0" d="M289.25,1046.78c16.59-34.35,36.04-66.29,57.84-94.94"/>
					<path class="st0" d="M116.42,891.64c28.31-23.82,59.49-45.24,92.68-63.67"/>
				</g>
				<g>
					<path class="st0" d="M156.86,625.16c36.54-1.65,75.3-0.95,115.21,2.09c0.32-178.6,132.57-349.93,295.39-382.66
						c-10.72-40.86-18.94-81.13-24.43-119.7C330.18,167.69,157.28,391.66,156.86,625.16z"/>
					<path class="st0" d="M209.87,401.19c32.27,16.36,66.84,34.77,102.75,54.75"/>
					<path class="st0" d="M348.41,221.72c21.14,30.79,44.75,63.4,70.18,96.94"/>
				</g>
				<g>
					<path class="st0" d="M543.04,124.89c5.49,38.57,13.7,78.85,24.43,119.7c162.82-32.74,294.55,85.51,294.23,264.12
						c18.35-14.76,40.57-27.72,66-38.53C928.12,236.68,755.9,82.09,543.04,124.89z"/>
					<path class="st0" d="M737.46,143.5c-10.14,37.08-17.31,75.88-21.28,115.33"/>
					<path class="st0" d="M875.46,267.37c-21.24,27.12-39.32,56.12-53.72,86.21"/>
				</g>
				<g>
					<path class="st0" d="M927.7,470.18c-25.44,10.81-47.65,23.77-66,38.53c-0.32,178.6-132.57,349.93-295.39,382.66
						c-10.84,23.06-19.17,49.67-24.78,79.08C754.38,927.65,927.28,703.67,927.7,470.18z"/>
					<path class="st0" d="M874.69,694.14c-21.18-7.2-39.2-11.95-53.54-14.12"/>
					<path class="st0" d="M736.15,873.62c-10.04-21.63-17.1-40.58-20.97-56.32"/>
				</g>
				<g>
					<path class="st0" d="M541.52,970.45c5.61-29.41,13.94-56.03,24.78-79.08c-162.82,32.74-294.55-85.51-294.23-264.12
						c-39.91-3.04-78.68-3.74-115.21-2.09C156.44,858.66,328.66,1013.25,541.52,970.45z"/>
					<path class="st0" d="M347.1,951.84c21.24-27.91,44.96-53.06,70.49-74.71"/>
					<path class="st0" d="M209.1,827.97c32.34-17.95,66.97-33.3,102.93-45.58"/>
				</g>
			</g>
			<path class="st0" d="M51,637.64c32.75-6.59,68.37-10.79,105.86-12.48c0.42-233.5,173.32-457.47,386.18-500.27
				C755.9,82.09,928.12,236.68,927.7,470.18c-0.42,233.5-173.32,457.47-386.18,500.27c-212.86,42.8-385.08-111.8-384.66-345.29
				C119.37,626.85,83.75,631.05,51,637.64c-0.53,292.43,215.16,486.05,481.75,432.45c266.59-53.6,483.13-334.11,483.65-626.55
				c0.53-292.43-215.16-486.05-481.75-432.45S51.53,345.21,51,637.64z"/>
			<path class="st0" d="M156.86,625.16c36.54-1.65,75.3-0.95,115.21,2.09c0.32-178.6,132.57-349.93,295.39-382.66
				c162.82-32.74,294.55,85.51,294.23,264.12S729.12,858.63,566.3,891.37c-162.82,32.74-294.55-85.51-294.23-264.12
				C232.16,624.21,193.4,623.51,156.86,625.16c-0.42,233.5,171.8,388.09,384.66,345.29c212.86-42.8,385.76-266.78,386.18-500.27
				c0.42-233.5-171.8-388.09-384.66-345.29C330.18,167.69,157.28,391.66,156.86,625.16z"/>
			<g class="st1">
				<g>
					<path class="st0" d="M51,637.64c32.75-6.59,68.37-10.79,105.86-12.48c0.42-233.5,173.32-457.47,386.18-500.27
						c-5.63-39.59-8.45-77.87-8.39-113.8C268.06,64.69,51.53,345.21,51,637.64z"/>
					<path class="st0" d="M117.38,357.14c28.25,12.45,59.36,27.27,92.48,44.05"/>
					<path class="st0" d="M290.9,132.37c16.48,27.7,35.82,57.76,57.51,89.35"/>
				</g>
				<g>
					<path class="st0" d="M534.65,11.09c-0.06,35.93,2.75,74.21,8.39,113.8C755.9,82.09,928.12,236.68,927.7,470.18
						c26.11-11.09,55.95-20.06,88.71-26.64C1016.93,151.11,801.24-42.51,534.65,11.09z"/>
					<path class="st0" d="M778.15,34.4c-16.59,34.35-30.28,71.05-40.69,109.1"/>
					<path class="st0" d="M950.98,189.54c-28.31,23.82-53.72,50-75.52,77.83"/>
				</g>
				<g>
					<path class="st0" d="M532.75,1070.09c0.06-35.93,3.01-69.45,8.77-99.63c-212.86,42.8-385.08-111.8-384.66-345.29
						c-37.5,1.69-73.11,5.89-105.86,12.48C50.48,930.07,266.16,1123.68,532.75,1070.09z"/>
					<path class="st0" d="M289.25,1046.78c16.59-34.35,36.04-66.29,57.84-94.94"/>
					<path class="st0" d="M116.42,891.64c28.31-23.82,59.49-45.24,92.68-63.67"/>
				</g>
				<g>
					<path class="st0" d="M156.86,625.16c36.54-1.65,75.3-0.95,115.21,2.09c0.32-178.6,132.57-349.93,295.39-382.66
						c-10.72-40.86-18.94-81.13-24.43-119.7C330.18,167.69,157.28,391.66,156.86,625.16z"/>
					<path class="st0" d="M194.1,624.29c0.39-214.84,159.47-420.93,355.33-460.31"/>
					<path class="st0" d="M232.59,624.99c0.35-196.51,145.86-385,325-421.02"/>
					<path class="st0" d="M209.87,401.19c32.27,16.36,66.84,34.77,102.75,54.75"/>
					<path class="st0" d="M348.41,221.72c21.14,30.79,44.75,63.4,70.18,96.94"/>
				</g>
				<g>
					<path class="st0" d="M543.04,124.89c5.49,38.57,13.7,78.85,24.43,119.7c162.82-32.74,294.55,85.51,294.23,264.12
						c18.35-14.76,40.57-27.72,66-38.53C928.12,236.68,755.9,82.09,543.04,124.89z"/>
					<path class="st0" d="M549.43,163.99c195.86-39.38,354.32,102.86,353.93,317.71"/>
					<path class="st0" d="M557.59,203.97c179.14-36.02,324.08,94.08,323.72,290.59"/>
					<path class="st0" d="M737.46,143.5c-10.14,37.08-17.31,75.88-21.28,115.33"/>
					<path class="st0" d="M875.46,267.37c-21.24,27.12-39.32,56.12-53.72,86.21"/>
				</g>
				<g>
					<path class="st0" d="M927.7,470.18c-25.44,10.81-47.65,23.77-66,38.53c-0.32,178.6-132.57,349.93-295.39,382.66
						c-10.84,23.06-19.17,49.67-24.78,79.08C754.38,927.65,927.28,703.67,927.7,470.18z"/>
					<path class="st0" d="M903.36,481.69C902.97,696.54,743.89,902.62,548.03,942"/>
					<path class="st0" d="M881.31,494.56c-0.35,196.51-145.86,385-325,421.02"/>
					<path class="st0" d="M874.69,694.14c-21.18-7.2-39.2-11.95-53.54-14.12"/>
					<path class="st0" d="M736.15,873.62c-10.04-21.63-17.1-40.58-20.97-56.32"/>
				</g>
				<g>
					<path class="st0" d="M541.52,970.45c5.61-29.41,13.94-56.03,24.78-79.08c-162.82,32.74-294.55-85.51-294.23-264.12
						c-39.91-3.04-78.68-3.74-115.21-2.09C156.44,858.66,328.66,1013.25,541.52,970.45z"/>
					<path class="st0" d="M548.03,942C352.17,981.38,193.72,839.14,194.1,624.29"/>
					<path class="st0" d="M556.31,915.58C377.17,951.6,232.23,821.5,232.59,624.99"/>
					<path class="st0" d="M347.1,951.84c21.24-27.91,44.96-53.06,70.49-74.71"/>
					<path class="st0" d="M209.1,827.97c32.34-17.95,66.97-33.3,102.93-45.58"/>
				</g>
				<g>
					<path class="st0" d="M272.07,627.25c39.19,2.99,79.87,8.25,120.92,15.65c0.23-128.93,95.7-252.6,213.23-276.23
						c-15.2-40.89-28.24-81.97-38.77-122.08C404.65,277.33,272.4,448.65,272.07,627.25z"/>
					<path class="st0" d="M312.62,455.94c35.25,19.61,72.14,40.9,109.65,63.3"/>
					<path class="st0" d="M418.59,318.66c24.97,32.93,51.94,67.07,80.17,101.48"/>
				</g>
				<g>
					<path class="st0" d="M567.46,244.59c10.53,40.11,23.57,81.18,38.77,122.08c117.53-23.63,212.63,61.73,212.4,190.66
						c10.56-17.78,25.05-34.13,43.07-48.62C862.01,330.1,730.28,211.86,567.46,244.59z"/>
					<path class="st0" d="M716.18,258.83c-3.9,38.73-4.78,78.47-2.6,118.12"/>
					<path class="st0" d="M821.74,353.58c-14.14,29.54-24.89,60.41-31.95,91.77c-7.3,26.28-8.62,63.36-10.2,94.51"/>
				</g>
				<g>
					<path class="st0" d="M861.69,508.71c-18.02,14.49-32.51,30.85-43.07,48.62c-0.23,128.93-95.7,252.6-213.23,276.23
						c-15.3,15.72-28.45,35.17-39.09,57.81C729.12,858.63,861.37,687.31,861.69,508.71z"/>
					<path class="st0" d="M821.15,680.02c-14.09-2.13-24.78-1.81-31.79,0.97"/>
					<path class="st0" d="M715.18,817.3c-3.8-15.45-4.58-27.97-2.32-37.21"/>
				</g>
				<g>
					<path class="st0" d="M566.3,891.37c10.64-22.64,23.79-42.09,39.09-57.81C487.86,857.19,392.77,771.83,393,642.9
						c-41.05-7.4-81.74-12.66-120.92-15.65C271.75,805.86,403.48,924.11,566.3,891.37z"/>
					<path class="st0" d="M417.59,877.13c25.07-21.26,52.14-39.37,80.45-53.85"/>
					<path class="st0" d="M312.03,782.38c35.31-12.07,72.25-21.32,109.81-27.49"/>
				</g>
			</g>
			<path class="st0" d="M635.41,800.42"/>
			<path class="st0" d="M738.96,778.47"/>
			<path class="st0" d="M705.31,786.35c-6.53,0.21-11.07-0.54-17-2.03c-29.95-7.53-50.99-35.66-50.92-73.44
				c-39.62-14.98-80.46-28.35-121.41-39.73"/>
			<path class="st0" d="M635.41,800.42"/>
			<path class="st0" d="M723.77,770.41"/>
			<path class="st0" d="M818.74,557.37c0,0-18.38,24.07-18.8,99.08"/>
			<g>
				<path class="st0" d="M841.47,511.11c7.1,157.83-105.16,314.96-250.73,350.96"/>
				<path class="st0" d="M565.05,290.52c-145.57,36-257.82,193.13-250.73,350.96"/>
				<path class="st0" d="M841.47,511.11c-7.1-157.83-130.86-256.59-276.42-220.59"/>
				<path class="st0" d="M314.32,641.47c7.1,157.83,130.86,256.59,276.42,220.59"/>
			</g>
			<g>
				<path class="st0" d="M630.5,427.34c-98.26,19.85-178.05,123.58-178.2,231.69"/>
				<path class="st0" d="M807.97,584.19c0.16-108.11-79.21-176.7-177.47-156.85"/>
				<path class="st0" d="M452.3,659.03c-0.16,108.11,94.26,177.46,192.52,157.61"/>
			</g>
			<g>
				<path class="st0" d="M828.73,531.13c6.42,142.7-95.08,284.77-226.7,317.32"/>
				<path class="st0" d="M578.8,331.68C447.19,364.23,345.69,506.3,352.11,649"/>
				<path class="st0" d="M828.73,531.13c-6.42-142.7-118.31-232-249.93-199.45"/>
				<path class="st0" d="M352.11,649c6.42,142.7,118.31,232,249.93,199.45"/>
			</g>
		</g>
		<g>
			<path class="st0" d="M679.12,801.43c-16.17,8.9-33.31,15.76-51.12,20.16"/>
			<path class="st0" d="M813.55,561.86"/>
			<path class="st0" d="M608.98,398.61c-107.73,26.64-190.81,142.93-185.56,259.73"/>
			<path class="st0" d="M608.98,398.61c107.73-26.64,199.32,46.45,204.57,163.25c0,0-0.69,51.45-9.07,81.28"/>
			<path class="st0" d="M423.42,658.34c5.25,116.8,96.84,189.9,204.57,163.25"/>
		</g>
		<g>
			<path class="st0" d="M639.29,460.74c-88.8,21.96-157.28,117.81-152.95,214.09"/>
			<path class="st0" d="M639.29,460.74c78.81-19.49,147.14,25.77,164.54,103.51c3.38,15.12,4.29,30.07,3.17,44.43
				c-1.19,15.22-3.53,39.09-7.06,47.77"/>
			<path class="st0" d="M486.34,674.83c4.33,96.28,79.82,156.53,168.63,134.57c0,0,22.42-3.16,49.9-23.03"/>
		</g>
		<path class="st0" d="M720.01,603.83c47.69-8.21,79.66,20.04,77.7,58.3"/>
	</g>
</g>
</svg>
