<svg xmlns="http://www.w3.org/2000/svg" xml:space="preserve" id="prefix__Layer_1" x="0" y="0" version="1.1" viewBox="0 0 1080 1080">
  <style>
    .prefix__st0{fill:none;stroke:#000;stroke-width:1.5;stroke-miterlimit:10}.prefix__st1{enable-background:new}
  </style>
  <path d="M816 597c2-13 3-26 3-40 0-129-95-214-213-190S393 514 393 643c41 7 82 17 123 28 0-86 64-168 142-183 67-14 123 26 137 93m5 52c0-12-2-42-5-52" class="prefix__st0"/>
  <g class="prefix__st1">
    <path d="M393 643c41 7 82 17 123 28 0-86 64-168 142-183-19-40-37-81-52-121-117 23-213 147-213 276zm29-124 113 70m-36-169 87 103m-29 160c0-73 54-143 120-156m-80 169c1-61 46-119 101-130m-163 23 114 74m-63-140 92 102M658 488c19 39 40 78 62 116m-43-77c80-14 131 59 123 129m-102-90c56-11 102 29 102 90m-71-162c8 39 19 77 33 114m18-68c0 32 10 91 18 122M649 663l106 73" class="prefix__st0"/>
  </g>
  <path d="m635 800 22-2c11-3 37-7 48-12" class="prefix__st0"/>
  <g class="prefix__st1">
    <path d="M605 834c16-16 33-28 52-36-78 15-141-41-141-127-41-11-82-21-123-28 0 129 95 214 212 191zm-107-11c28-14 58-25 88-32m-164-36c37-6 75-9 113-10" class="prefix__st0"/>
    <path d="M637 711a1418 1418 0 0 0-121-40c0 86 63 142 141 127m48-12c-67 14-148-30-148-103m149 103a89 89 0 0 1-109-90m-11 95a383 383 0 0 1 92-10m-143-35c38-1 76 2 114 8" class="prefix__st0"/>
    <path d="M649 754c25 4 50 10 75 16" class="prefix__st0"/>
  </g>
  <g class="prefix__st1">
    <path d="M658 488c19 39 40 78 62 116m23 37c23-5 43 4 55 21m-31 15c9-2 17-1 24 2" class="prefix__st0"/>
  </g>
  <g class="prefix__st1">
    <path d="M658 488c19 39 40 78 62 116" class="prefix__st0"/>
  </g>
  <g class="prefix__st1">
    <path d="m535 589 114 74m-63-140 92 102m84-17c-14-37-25-75-33-114-10-52-12-64-15-117M781 697c-25-34-38-55-61-93-46 9-83 57-83 107 40 15 66 25 103 43m-63-27c0-40 30-79 66-86m-27 102c0-31 23-60 51-66m-89-52 91 92M762 608a750 750 0 0 0 29 69" class="prefix__st0"/>
  </g>
  <g class="prefix__st1">
    <path d="M637 711a1418 1418 0 0 0-121-40c0 86 63 142 141 127m53-15c-20-9-33-30-33-56m46 44c-4-8-7-17-7-28" class="prefix__st0"/>
  </g>
  <g class="prefix__st1">
    <path d="M637 711a1418 1418 0 0 0-121-40c0 86 63 142 141 127" class="prefix__st0"/>
  </g>
  <path d="M51 638c33-7 68-11 106-13 0-233 173-457 386-500s385 112 385 345c-1 234-174 458-386 500-213 43-386-111-385-345-38 2-73 6-106 13-1 292 215 486 482 432 266-54 483-334 483-626 1-293-215-487-481-433S52 345 51 638z" class="prefix__st0"/>
  <g class="prefix__st1">
    <path d="M51 638c33-7 68-11 106-13 0-233 173-457 386-500-6-40-8-78-8-114C268 65 52 345 51 638zm34-6C85 359 287 98 536 48M120 628c0-253 188-496 418-542M117 357c29 13 60 27 93 44m81-269c16 28 36 58 57 90" class="prefix__st0"/>
    <path d="M535 11c0 36 2 74 8 114 213-43 385 112 385 345 26-11 56-20 88-26 1-293-215-487-481-433zm1 37C784-2 985 178 985 451M538 86c231-47 417 121 417 374M778 34c-16 35-30 71-41 109m214 47c-28 23-54 50-76 77" class="prefix__st0"/>
    <path d="M1016 444c-32 6-62 15-88 26-1 234-174 458-386 500-6 31-9 64-9 100 266-54 483-334 483-626zm-31 7c-1 273-203 534-451 584m421-575c0 253-188 495-418 542m413-278-75-30m-98 255c-17-28-31-53-41-75" class="prefix__st0"/>
    <path d="M533 1070c0-36 3-69 9-100-213 43-386-111-385-345-38 2-73 6-106 13-1 292 215 486 482 432zm1-35C285 1085 84 904 85 632m452 370c-231 46-417-121-417-374m169 419c17-35 36-67 58-95m-231-60c29-24 60-46 93-64M157 625c36-1 75-1 115 2 0-178 133-350 295-382-10-41-18-82-24-120-213 43-386 267-386 500zm53-224 103 55m35-234 71 97" class="prefix__st0"/>
    <path d="M543 125c6 38 14 79 24 120 163-33 295 85 295 264 18-15 40-28 66-39 0-233-172-388-385-345zm194 19c-10 37-17 75-21 115m159 8c-21 27-39 56-53 87" class="prefix__st0"/>
    <path d="M928 470c-26 11-48 24-66 39-1 178-133 350-296 382-11 23-19 50-24 79 212-42 385-266 386-500zm-53 224c-21-7-40-12-54-14m-85 194c-10-22-17-41-21-57" class="prefix__st0"/>
    <path d="M542 970c5-29 13-56 24-79-163 33-294-85-294-264-40-3-79-3-115-2-1 234 172 388 385 345zm-195-18c21-28 45-53 71-75m-209-49c32-18 67-33 103-46" class="prefix__st0"/>
  </g>
  <path d="M51 638c33-7 68-11 106-13 0-233 173-457 386-500s385 112 385 345c-1 234-174 458-386 500-213 43-386-111-385-345-38 2-73 6-106 13-1 292 215 486 482 432 266-54 483-334 483-626 1-293-215-487-481-433S52 345 51 638z" class="prefix__st0"/>
  <path d="M157 625c36-1 75-1 115 2 0-178 133-350 295-382 163-33 295 85 295 264S729 859 566 891c-163 33-294-85-294-264-40-3-79-3-115-2-1 234 172 388 385 345 212-42 385-266 386-500 0-233-172-388-385-345S157 392 157 625z" class="prefix__st0"/>
  <g class="prefix__st1">
    <path d="M51 638c33-7 68-11 106-13 0-233 173-457 386-500-6-40-8-78-8-114C268 65 52 345 51 638zm66-281c29 13 60 27 93 44m81-269c16 28 36 58 57 90" class="prefix__st0"/>
    <path d="M535 11c0 36 2 74 8 114 213-43 385 112 385 345 26-11 56-20 88-26 1-293-215-487-481-433zm243 23c-16 35-30 71-41 110m214 46c-28 23-54 50-76 77m-342 803c0-36 3-69 9-100-213 43-386-111-385-345-38 2-73 6-106 13-1 292 215 486 482 432zm-244-23c17-35 36-67 58-95m-231-60c29-24 60-46 93-64m-52-203c36-1 75-1 115 2 0-178 133-350 295-382-10-41-18-82-24-120-213 43-386 267-386 500zm37-1c0-215 160-421 355-460M233 625c0-197 145-385 325-421M210 401l103 55m35-234 71 97" class="prefix__st0"/>
    <path d="M543 125c6 38 14 79 24 120 163-33 295 85 295 264 18-15 40-28 66-39 0-233-172-388-385-345zm6 39c196-39 355 103 354 318M558 204c179-36 324 94 323 291M737 144c-10 37-17 75-21 115m159 8c-21 27-39 56-53 87" class="prefix__st0"/>
    <path d="M928 470c-26 11-48 24-66 39-1 178-133 350-296 382-11 23-19 50-24 79 212-42 385-266 386-500zm-25 12c0 215-159 421-355 460m333-447c0 196-146 385-325 421m319-222c-21-7-40-12-54-14m-85 194c-10-22-17-41-21-57" class="prefix__st0"/>
    <path d="M542 970c5-29 13-56 24-79-163 33-294-85-294-264-40-3-79-3-115-2-1 234 172 388 385 345zm6-28c-196 39-354-103-354-318m362 292c-179 36-324-94-323-291m114 327c21-28 45-53 71-75m-209-49c32-18 67-33 103-46M272 627c39 3 80 9 121 16 0-129 96-253 213-276-15-41-28-82-39-122-162 32-295 204-295 382zm41-171 109 63m-3-200 80 101" class="prefix__st0"/>
    <path d="M567 245c11 40 24 81 39 122 118-24 213 61 213 190 10-17 25-34 43-48 0-179-132-297-295-264zm149 14c-4 39-5 78-2 118" class="prefix__st0"/>
    <path d="M822 354c-14 29-25 60-32 91-8 27-9 64-10 95M862 509c-18 14-33 31-43 48-1 129-96 253-214 277-15 15-28 35-39 57 163-32 295-204 296-382zm-41 171c-14-2-25-2-32 1m-74 136c-4-15-4-28-2-37" class="prefix__st0"/>
    <path d="M566 891c11-22 24-42 39-57-117 23-212-62-212-191-41-8-82-13-121-16 0 179 131 297 294 264zm-148-14c25-21 52-39 80-54m-186-41c35-12 72-21 110-27" class="prefix__st0"/>
  </g>
  <path d="M705 786c-6 1-11 0-17-2-30-7-51-35-51-73a1419 1419 0 0 0-121-40m303-114s-19 24-19 99m41-145c8 158-105 315-250 351m-26-571a354 354 0 0 0-251 350m527-130c-7-158-130-256-276-220M314 641c7 158 131 257 277 221" class="prefix__st0"/>
  <path d="M631 427c-99 20-179 124-179 232m356-75c0-108-79-177-177-157M452 659c0 108 95 177 193 158" class="prefix__st0"/>
  <path d="M829 531c6 143-95 285-227 317m-23-516a320 320 0 0 0-227 317m477-118c-7-143-119-232-250-199M352 649c7 143 118 232 250 199" class="prefix__st0"/>
  <path d="M679 801c-16 9-33 16-51 21m-19-423a262 262 0 0 0-186 259m186-259c108-27 199 46 205 163 0 0-1 51-10 81m-381 15c6 117 97 190 205 164" class="prefix__st0"/>
  <path d="M639 461a216 216 0 0 0-153 214m153-214c79-20 147 26 165 103a236 236 0 0 1-4 92m-314 19c5 96 80 156 169 134 0 0 22-3 50-23" class="prefix__st0"/>
  <path d="M720 604c48-8 80 20 78 58" class="prefix__st0"/>
</svg>
