<?xml version="1.0" standalone="no"?>
<!DOCTYPE svg PUBLIC "-//W3C//DTD SVG 20010904//EN" "http://www.w3.org/TR/2001/REC-SVG-20010904/DTD/svg10.dtd">
<svg version="1.0" xmlns="http://www.w3.org/2000/svg" width="512.000000pt" height="512.000000pt"
    viewBox="0 0 512.000000 512.000000" preserveAspectRatio="xMidYMid meet">

    <g transform="translate(0.000000,512.000000) scale(0.100000,-0.100000)" fill="#000000" stroke="none">
        <path d="M2321 5109 c-481 -43 -982 -247 -1367 -556 -513 -414 -839 -998 -936
-1678 -20 -140 -17 -504 6 -660 39 -278 121 -541 247 -794 331 -667 931 -1152
1657 -1340 509 -132 1067 -98 1560 94 349 137 639 330 907 606 205 210 340
404 465 663 119 246 190 474 232 741 31 200 31 550 0 750 -43 273 -114 500
-237 750 -123 251 -262 448 -459 652 -209 217 -420 372 -691 509 -431 217
-898 306 -1384 263z m509 -433 c491 -66 932 -289 1270 -642 299 -313 484 -682
565 -1129 26 -142 31 -442 11 -603 -100 -780 -602 -1432 -1327 -1722 -277
-110 -543 -156 -854 -147 -250 7 -442 43 -660 122 -689 249 -1201 836 -1359
1555 -39 178 -49 301 -43 514 5 197 18 296 62 467 217 847 936 1478 1810 1588
113 14 410 12 525 -3z" />
        <path d="M2385 4035 c-169 -37 -304 -112 -430 -240 -104 -105 -158 -192 -206
-335 -29 -86 -33 -107 -33 -216 -1 -116 0 -122 26 -160 15 -21 44 -50 65 -64
31 -21 48 -25 113 -25 67 0 81 3 116 27 65 45 84 84 98 196 23 178 103 299
240 363 128 60 244 60 372 0 165 -77 267 -272 235 -448 -28 -150 -112 -257
-262 -332 -111 -55 -188 -116 -244 -192 -93 -126 -125 -231 -125 -412 0 -96 3
-125 19 -155 67 -131 231 -162 334 -64 49 46 60 79 67 197 9 157 32 192 164
259 393 196 573 645 427 1060 -38 109 -101 206 -196 302 -130 131 -259 202
-438 240 -84 17 -261 17 -342 -1z" />
        <path d="M2460 1468 c-25 -14 -58 -44 -75 -67 -27 -39 -30 -50 -30 -120 0 -68
3 -82 27 -117 15 -21 44 -50 65 -64 31 -21 48 -25 113 -25 65 0 82 4 113 25
21 14 50 43 65 64 24 35 27 49 27 116 0 67 -3 81 -27 116 -44 62 -90 88 -167
92 -55 3 -74 -1 -111 -20z" />
    </g>
</svg>